<svg width="146" height="104" viewBox="0 0 146 104" fill="none" xmlns="http://www.w3.org/2000/svg">
<path d="M77 53L88.6307 41.3693C90.5762 39.4255 93.2138 38.3336 95.964 38.3333H99C100.945 38.3333 102.81 39.106 104.185 40.4812C105.561 41.8565 106.333 43.7218 106.333 45.6667C106.333 47.6116 105.561 49.4769 104.185 50.8521C102.81 52.2274 100.945 53 99 53H40.3333C38.3884 53 36.5231 52.2274 35.1479 50.8521C33.7726 49.4769 33 47.6116 33 45.6667C33 43.7218 33.7726 41.8565 35.1479 40.4812C36.5231 39.106 38.3884 38.3333 40.3333 38.3333H53.7423C59.2423 38.3333 64.5187 40.5187 68.409 44.409L77 53Z" stroke="white" stroke-width="2" stroke-linecap="round" stroke-linejoin="round"/>
<path d="M36.6667 53H102.667V60.3333C102.667 63.2507 101.508 66.0486 99.4449 68.1115C97.382 70.1744 94.5841 71.3333 91.6667 71.3333H47.6667C44.7493 71.3333 41.9514 70.1744 39.8885 68.1115C37.8256 66.0486 36.6667 63.2507 36.6667 60.3333V53Z" fill="white" stroke="white" stroke-width="2" stroke-linecap="round" stroke-linejoin="round"/>
<path fill-rule="evenodd" clip-rule="evenodd" d="M45.7123 14.698C52.3233 10.6757 60.7933 9 69.6666 9C78.54 9 87.01 10.6757 93.621 14.698C100.382 18.8083 105.021 25.28 106.095 34.234C106.634 38.722 102.912 42 99 42H40.3333C36.421 42 32.6993 38.722 33.2383 34.234C34.3126 25.28 38.951 18.8083 45.7123 14.698ZM51.3333 20C50.3609 20 49.4282 20.3863 48.7406 21.0739C48.053 21.7616 47.6666 22.6942 47.6666 23.6667C47.6666 24.6391 48.053 25.5718 48.7406 26.2594C49.4282 26.947 50.3609 27.3333 51.3333 27.3333C52.3058 27.3333 53.2421 26.947 53.9297 26.2594C54.6173 25.5718 55.0037 24.6391 55.0037 23.6667C55.0037 22.6942 54.6173 21.7616 53.9297 21.0739C53.2421 20.3863 52.3058 20 51.3333 20ZM80.6666 23.6667C80.6666 22.6942 81.053 21.7616 81.7406 21.0739C82.4282 20.3863 83.3609 20 84.3333 20C85.3058 20 86.2421 20.3863 86.9297 21.0739C87.6173 21.7616 88.0036 22.6942 88.0036 23.6667C88.0036 24.6391 87.6173 25.5718 86.9297 26.2594C86.2421 26.947 85.3094 27.3333 84.337 27.3333C83.3645 27.3333 82.4282 26.947 81.7406 26.2594C81.053 25.5718 80.6666 24.6391 80.6666 23.6667ZM66 27.3333C65.0275 27.3333 64.0949 27.7196 63.4073 28.4073C62.7196 29.0949 62.3333 30.0275 62.3333 31C62.3333 31.9725 62.7196 32.9051 63.4073 33.5927C64.0949 34.2804 65.0275 34.6667 66 34.6667H66.0037C66.9761 34.6667 67.9087 34.2804 68.5964 33.5927C69.284 32.9051 69.6703 31.9725 69.6703 31C69.6703 30.0275 69.284 29.0949 68.5964 28.4073C67.9087 27.7196 66.9761 27.3333 66.0037 27.3333H66Z" fill="white"/>
<path d="M2.31641 103V73.9091H14.8732C17.0323 73.9091 18.9215 74.3021 20.5408 75.0881C22.1602 75.8741 23.4196 77.0057 24.3192 78.483C25.2189 79.9602 25.6687 81.7311 25.6687 83.7955C25.6687 85.8788 25.2047 87.6354 24.2766 89.0653C23.3581 90.4953 22.0655 91.5748 20.3988 92.304C18.7416 93.0331 16.805 93.3977 14.5891 93.3977H7.08913V87.2614H12.9982C13.9263 87.2614 14.717 87.1477 15.3704 86.9205C16.0333 86.6837 16.5399 86.3097 16.8903 85.7983C17.2501 85.2869 17.43 84.6193 17.43 83.7955C17.43 82.9621 17.2501 82.285 16.8903 81.7642C16.5399 81.2339 16.0333 80.8456 15.3704 80.5994C14.717 80.3437 13.9263 80.2159 12.9982 80.2159H10.2141V103H2.31641ZM19.3619 89.6477L26.6346 103H18.055L10.9528 89.6477H19.3619ZM29.0352 103V73.9091H50.0011V80.2727H36.9329V85.2727H48.9215V91.6364H36.9329V96.6364H49.9442V103H29.0352ZM81.0771 84.8182H73.0657C73.0089 84.1553 72.8574 83.554 72.6112 83.0142C72.3744 82.4744 72.043 82.0104 71.6168 81.6222C71.2002 81.2244 70.6935 80.9214 70.0969 80.7131C69.5004 80.4953 68.8233 80.3864 68.0657 80.3864C66.7399 80.3864 65.6178 80.7083 64.6992 81.3523C63.7901 81.9962 63.0988 82.9195 62.6254 84.1222C62.1613 85.3248 61.9293 86.7689 61.9293 88.4545C61.9293 90.2348 62.1661 91.7263 62.6396 92.929C63.1225 94.1222 63.8185 95.0218 64.7276 95.6278C65.6367 96.2244 66.7305 96.5227 68.0089 96.5227C68.738 96.5227 69.3915 96.4328 69.9691 96.2528C70.5468 96.0634 71.0487 95.7936 71.4748 95.4432C71.9009 95.0928 72.2466 94.6714 72.5117 94.179C72.7863 93.6771 72.971 93.1136 73.0657 92.4886L81.0771 92.5455C80.9824 93.7765 80.6367 95.0312 80.0401 96.3097C79.4435 97.5786 78.596 98.7528 77.4975 99.8324C76.4085 100.902 75.0591 101.764 73.4492 102.418C71.8394 103.071 69.9691 103.398 67.8384 103.398C65.168 103.398 62.7721 102.825 60.6509 101.679C58.5392 100.533 56.8678 98.8475 55.6367 96.6222C54.4151 94.3968 53.8043 91.6742 53.8043 88.4545C53.8043 85.2159 54.4293 82.4886 55.6793 80.2727C56.9293 78.0473 58.6149 76.3665 60.7362 75.2301C62.8574 74.0843 65.2248 73.5114 67.8384 73.5114C69.6755 73.5114 71.3659 73.7623 72.9094 74.2642C74.453 74.7661 75.8072 75.5 76.9719 76.4659C78.1367 77.4223 79.0742 78.6013 79.7844 80.0028C80.4947 81.4044 80.9255 83.0095 81.0771 84.8182ZM92.5579 73.9091V103H84.6602V73.9091H92.5579ZM96.3008 103V73.9091H108.858C111.017 73.9091 112.906 74.3352 114.525 75.1875C116.145 76.0398 117.404 77.2377 118.304 78.7812C119.203 80.3248 119.653 82.1288 119.653 84.1932C119.653 86.2765 119.189 88.0805 118.261 89.6051C117.342 91.1297 116.05 92.304 114.383 93.1278C112.726 93.9517 110.789 94.3636 108.574 94.3636H101.074V88.2273H106.983C107.911 88.2273 108.701 88.0663 109.355 87.7443C110.018 87.4129 110.524 86.9441 110.875 86.3381C111.234 85.732 111.414 85.017 111.414 84.1932C111.414 83.3598 111.234 82.6496 110.875 82.0625C110.524 81.4659 110.018 81.0114 109.355 80.6989C108.701 80.3769 107.911 80.2159 106.983 80.2159H104.199V103H96.3008ZM122.551 103V73.9091H143.517V80.2727H130.449V85.2727H142.437V91.6364H130.449V96.6364H143.46V103H122.551Z" fill="white"/>
</svg>
